<svg width="14" height="15" viewBox="0 0 14 15" fill="none" xmlns="http://www.w3.org/2000/svg">
<g id="Group">
<path id="Vector" d="M13.6666 12.3333H0.333252V11H0.999919V6.354C0.999919 3.02867 3.68659 0.333333 6.99992 0.333333C10.3133 0.333333 12.9999 3.02867 12.9999 6.354V11H13.6666V12.3333ZM2.33325 11H11.6666V6.354C11.6666 3.76533 9.57725 1.66667 6.99992 1.66667C4.42259 1.66667 2.33325 3.76533 2.33325 6.354V11ZM5.33325 13H8.66659C8.66659 13.442 8.49099 13.866 8.17843 14.1785C7.86587 14.4911 7.44195 14.6667 6.99992 14.6667C6.55789 14.6667 6.13397 14.4911 5.82141 14.1785C5.50885 13.866 5.33325 13.442 5.33325 13V13Z" fill="#4E4E4E"/>
</g>
</svg>
