<svg width="16" height="16" viewBox="0 0 16 16" fill="none" xmlns="http://www.w3.org/2000/svg">
<g id="Frame" clip-path="url(#clip0_1460_5574)">
<g id="Group">
<g id="Clip path group">
<mask id="mask0_1460_5574" style="mask-type:luminance" maskUnits="userSpaceOnUse" x="0" y="0" width="16" height="16">
<g id="a">
<path id="Vector" d="M0 0H16V16H0V0Z" fill="white"/>
</g>
</mask>
<g mask="url(#mask0_1460_5574)">
<g id="Group_2">
<g id="Group_3">
<path id="Vector_2" fill-rule="evenodd" clip-rule="evenodd" d="M8.71875 3.63881C8.71875 1.63422 10.3438 0 12.3483 0C14.3529 0 15.9779 1.63422 15.9779 3.63881C15.9779 5.64338 14.3529 7.27759 12.3483 7.27759C10.3438 7.27759 8.71875 5.64338 8.71875 3.63881ZM1.57812 0.007125C0.715187 0.007125 0.015625 0.706656 0.015625 1.56963V5.72219C0.015625 6.58516 0.715187 7.28469 1.57812 7.28469H5.71231C6.57525 7.28469 7.27481 6.58516 7.27481 5.72219V1.56963C7.27481 0.706656 6.57525 0.007125 5.71231 0.007125H1.57812ZM0.209812 12.8606C-0.0699375 12.5806 -0.0699375 12.1268 0.209812 11.8469L3.12631 8.92869C3.40606 8.64878 3.85966 8.64878 4.13941 8.92869L7.05591 11.8469C7.33566 12.1268 7.33566 12.5806 7.05591 12.8606L4.13941 15.7788C3.85966 16.0587 3.40606 16.0587 3.12631 15.7788L0.209812 12.8606Z" fill="#222222"/>
</g>
<path id="Vector_3" d="M12.8318 9.19897C12.8318 8.93375 12.6168 8.71875 12.3516 8.71875C12.0864 8.71875 11.8714 8.93375 11.8714 9.19897V11.8732H9.19897C8.93375 11.8732 8.71875 12.0882 8.71875 12.3534C8.71875 12.6186 8.93375 12.8336 9.19897 12.8336H11.8714V15.5078C11.8714 15.773 12.0864 15.988 12.3516 15.988C12.6168 15.988 12.8318 15.773 12.8318 15.5078V12.8336H15.5042C15.7694 12.8336 15.9844 12.6186 15.9844 12.3534C15.9844 12.0882 15.7694 11.8732 15.5042 11.8732H12.8318V9.19897Z" fill="#222222"/>
</g>
</g>
</g>
</g>
</g>
<defs>
<clipPath id="clip0_1460_5574">
<rect width="16" height="16" fill="white"/>
</clipPath>
</defs>
</svg>
