<?xml version="1.0"?>
<svg width="16px" height="16px" xmlns="http://www.w3.org/2000/svg">
  <path fill-rule="evenodd" clip-rule="evenodd" fill="#333840" d="M14.1006 14.0416C14.1693 13.9729 14.2187 13.8922 14.2487 13.8062C14.4549 13.4269 14.3976 12.9424 14.0769 12.6216L11.4288 9.97355C12.8244 7.89986 12.6052 5.06269 10.7713 3.22878C8.68852 1.14599 5.31164 1.14599 3.22885 3.22878C1.14605 5.31158 1.14605 8.68846 3.22885 10.7713C5.07715 12.6196 7.94455 12.8277 10.0223 11.3955L12.6626 14.0359C12.9992 14.3724 13.5159 14.4189 13.9022 14.1755C13.9743 14.145 14.0419 14.1004 14.1006 14.0416ZM9.59852 4.37206C11.0304 5.80398 11.0304 8.12559 9.59852 9.55751C8.1666 10.9894 5.84499 10.9894 4.41307 9.55751C2.98115 8.12559 2.98115 5.80398 4.41307 4.37206C5.84499 2.94014 8.1666 2.94014 9.59852 4.37206Z">
  </path>
</svg>
