<svg width="32" height="32" viewBox="0 0 32 32" fill="none" xmlns="http://www.w3.org/2000/svg">
<g clip-path="url(#clip0_2054_25661)">
<path fill-rule="evenodd" clip-rule="evenodd" d="M22.2267 17.5066C24.0534 18.7466 25.3334 20.4266 25.3334 22.6666V26.6666H30.6667V22.6666C30.6667 19.7599 25.9067 18.0399 22.2267 17.5066Z" fill="currentColor"/>
<path d="M12 15.9999C14.9455 15.9999 17.3334 13.6121 17.3334 10.6666C17.3334 7.72107 14.9455 5.33325 12 5.33325C9.0545 5.33325 6.66669 7.72107 6.66669 10.6666C6.66669 13.6121 9.0545 15.9999 12 15.9999Z" fill="currentColor"/>
<path fill-rule="evenodd" clip-rule="evenodd" d="M20 15.9999C22.9467 15.9999 25.3334 13.6133 25.3334 10.6666C25.3334 7.71992 22.9467 5.33325 20 5.33325C19.3734 5.33325 18.7867 5.46658 18.2267 5.65325C19.3334 7.02658 20 8.77325 20 10.6666C20 12.5599 19.3334 14.3066 18.2267 15.6799C18.7867 15.8666 19.3734 15.9999 20 15.9999Z" fill="currentColor"/>
<path fill-rule="evenodd" clip-rule="evenodd" d="M12 17.3333C8.44001 17.3333 1.33334 19.1199 1.33334 22.6666V26.6666H22.6667V22.6666C22.6667 19.1199 15.56 17.3333 12 17.3333Z" fill="currentColor"/>
</g>
<defs>
<clipPath id="clip0_2054_25661">
<rect width="32" height="32" fill="white"/>
</clipPath>
</defs>
</svg>
